# xmcd CD database file
#
# Track frame offsets:
#	150
#	11336
#	27497
#	42513
#	56581
#	69492
#	84797
#	97580
#	109522
#	123152
#	142178
#	154434
#
# Disc length: 2256 seconds
#
# Revision: 1
# Processed by: cddbd v1.5.2PL0 Copyright (c) Steve Scherf et al.
# Submitted via: CDex 1.51
#
DISCID=9308ce0c
DTITLE=Drachenburg Musikanten - Zum Fest der guten Laune
DYEAR=1900
DGENRE=Country
TTITLE0=Drachenburg Musikanten - Ein Koffer voller Lieder
TTITLE1=Drachenburg Musikanten - Mutter Erde
TTITLE2=Drachenburg Musikanten - Wandern ist schön
TTITLE3=Drachenburg Musikanten - Sommerliebe und Sternenfeuer
TTITLE4=Drachenburg Musikanten - Wenn dein Mund mich küßt
TTITLE5=Drachenburg Musikanten - Ein bißchen Frieden auf der Welt
TTITLE6=Drachenburg Musikanten - Zum Fest der guten Laune
TTITLE7=Drachenburg Musikanten - Wenn ein Traum zerbricht
TTITLE8=Drachenburg Musikanten - In Sachen Liebe unterwegs
TTITLE9=Drachenburg Musikanten - Stimmung made in Germany
TTITLE10=Drachenburg Musikanten - Was wär das Leben ohne Volksmusik
TTITLE11=Drachenburg Musikanten - Tanz mit mir
EXTD=
EXTT0=
EXTT1=
EXTT2=
EXTT3=
EXTT4=
EXTT5=
EXTT6=
EXTT7=
EXTT8=
EXTT9=
EXTT10=
EXTT11=
PLAYORDER=
